<svg xmlns="http://www.w3.org/2000/svg" width="20" height="20" viewBox="0 0 20 20" fill="none">
<path d="M4.36264 5.56525L1.38539 8.54225C1.21939 8.70825 1.02747 8.79025 0.809637 8.78825C0.591637 8.78625 0.399637 8.70225 0.233637 8.53625C0.0844703 8.38708 0.00672026 8.19933 0.000386924 7.973C-0.00594641 7.74667 0.0654703 7.55058 0.214637 7.38475L1.05489 6.5255L0.257637 5.72225C0.087637 5.55225 0.00263702 5.35233 0.00263702 5.1225C0.00263702 4.89267 0.087637 4.69275 0.257637 4.52275L1.79189 2.9885L1.34464 2.54725C1.17064 2.37725 1.08364 2.17733 1.08364 1.9475C1.08364 1.71767 1.16864 1.51975 1.33864 1.35375C1.4918 1.19642 1.68655 1.11458 1.92289 1.10825C2.15905 1.10192 2.36214 1.17542 2.53214 1.32875L2.99839 1.782L4.50764 0.272749C4.67764 0.102749 4.87755 0.017749 5.10739 0.017749C5.33722 0.017749 5.53914 0.102749 5.71314 0.272749L6.51039 1.07L7.37564 0.223749C7.54147 0.0745821 7.73439 0 7.95439 0C8.17439 0 8.3653 0.0809157 8.52714 0.242749C8.69314 0.412749 8.77614 0.60675 8.77614 0.82475C8.77614 1.04258 8.69314 1.2345 8.52714 1.4005L5.55589 4.37175L14.9086 13.7245L17.8799 10.7533C18.0459 10.5873 18.2388 10.5043 18.4586 10.5043C18.6786 10.5043 18.8716 10.5873 19.0376 10.7533C19.1868 10.9024 19.2646 11.0912 19.2709 11.3195C19.2772 11.5478 19.2058 11.7429 19.0566 11.9048L18.2104 12.77L19.0076 13.5672C19.1776 13.7413 19.2626 13.9432 19.2626 14.173C19.2626 14.4028 19.1776 14.6028 19.0076 14.7728L17.4484 16.332L17.9016 16.7733C18.0716 16.9433 18.1566 17.1432 18.1566 17.373C18.1566 17.6028 18.0716 17.8008 17.9016 17.9668C17.7318 18.1368 17.5329 18.2218 17.3049 18.2218C17.0771 18.2218 16.8781 18.1348 16.7081 17.9608L16.2669 17.5135L14.7576 19.0228C14.5876 19.1928 14.3877 19.2778 14.1579 19.2778C13.9281 19.2778 13.7281 19.1928 13.5581 19.0228L12.7549 18.2255L11.8896 19.0718C11.7238 19.2209 11.5319 19.2945 11.3139 19.2925C11.0959 19.2905 10.906 19.2086 10.7441 19.0468C10.5741 18.8808 10.4891 18.6888 10.4891 18.4708C10.4891 18.2529 10.5741 18.059 10.7441 17.889L13.7151 14.9178L4.36264 5.56525Z" fill="black"/>
</svg>