 <svg xmlns="http://www.w3.org/2000/svg" width="19" height="21" viewBox="0 0 19 21" fill="none">
<path d="M4.05975 20.305C3.81808 20.305 3.61642 20.2232 3.45475 20.0595C3.29325 19.8958 3.2125 19.6938 3.2125 19.4533V10.9265C2.21467 10.6763 1.42975 10.2031 0.85775 9.50675C0.285917 8.81042 0 7.99567 0 7.0625V0.833749C0 0.600083 0.0804167 0.40275 0.24125 0.24175C0.402083 0.0805829 0.599167 0 0.8325 0C1.06583 0 1.26233 0.0805829 1.422 0.24175C1.5815 0.40275 1.66125 0.600083 1.66125 0.833749V6.211H3.23625V0.833749C3.23625 0.600083 3.31675 0.40275 3.47775 0.24175C3.63858 0.0805829 3.83567 0 4.069 0C4.30233 0 4.49875 0.0805829 4.65825 0.24175C4.81792 0.40275 4.89775 0.600083 4.89775 0.833749V6.211H6.49775V0.833749C6.49775 0.600083 6.57817 0.40275 6.739 0.24175C6.9 0.0805829 7.09717 0 7.3305 0C7.56383 0 7.76025 0.0805829 7.91975 0.24175C8.07942 0.40275 8.15925 0.600083 8.15925 0.833749V7.05075C8.15925 7.98758 7.87125 8.80117 7.29525 9.4915C6.71942 10.182 5.92625 10.6581 4.91575 10.9197V19.4533C4.91575 19.6938 4.8335 19.8958 4.669 20.0595C4.5045 20.2232 4.30142 20.305 4.05975 20.305ZM14.6653 20.305C14.4239 20.305 14.2224 20.2232 14.0608 20.0595C13.8993 19.8958 13.8185 19.6938 13.8185 19.4533V10.495C12.8645 10.1553 12.1023 9.52417 11.532 8.6015C10.9617 7.67883 10.6765 6.58683 10.6765 5.3255C10.6765 3.84483 11.0664 2.58708 11.8463 1.55225C12.6263 0.517416 13.5675 0 14.67 0C15.7727 0 16.7139 0.519166 17.4937 1.5575C18.2736 2.596 18.6635 3.852 18.6635 5.3255C18.6635 6.5845 18.3783 7.67683 17.808 8.6025C17.2378 9.52833 16.4778 10.1679 15.5278 10.5212V19.4533C15.5278 19.6938 15.4443 19.8958 15.2775 20.0595C15.1105 20.2232 14.9064 20.305 14.6653 20.305Z" fill="black"/>
</svg>