<svg width="112" height="48" viewBox="0 0 112 48" fill="none" xmlns="http://www.w3.org/2000/svg">
<g clip-path="url(#clip0_9311_32139)">
<path d="M36.2621 23.9997C36.2621 32.7248 29.1892 39.7977 20.4641 39.7977C20.1365 39.7977 19.8115 39.7881 19.4892 39.7681C18.1376 39.6861 16.8313 39.4335 15.5925 39.0317C15.1212 38.8795 14.6594 38.7048 14.2088 38.5107C8.59479 36.0881 4.66602 30.5027 4.66602 23.9997C4.66602 15.2746 11.7389 8.20166 20.4641 8.20166C29.1892 8.20166 36.2621 15.2746 36.2621 23.9997Z" fill="#33ADC1"/>
<path d="M19.4898 39.7683C17.6235 39.6547 15.8452 39.217 14.2094 38.5109C20.3273 30.2631 9.73633 22.4072 9.73633 22.4072L11.2798 22.0261L15.076 21.0894C15.076 21.0891 26.5041 28.0603 19.4898 39.7683Z" fill="#EAE0D3"/>
<path d="M15.5931 39.0316C15.1218 38.8795 14.66 38.7047 14.2094 38.5107C20.3273 30.2629 9.73633 22.407 9.73633 22.407L11.2798 22.0259C11.654 22.3057 12.1775 22.67 12.712 23.1697C15.4976 25.7717 19.5387 31.3088 15.5931 39.0316Z" fill="#D6C8B0"/>
<path d="M18.8875 16.9938C18.8875 20.4048 16.1226 23.1697 12.7114 23.1697C9.30037 23.1697 6.53543 20.4048 6.53543 16.9938C6.53543 16.4844 6.59666 15.9898 6.71333 15.5164C6.82928 15.0432 7.00019 14.5912 7.21811 14.1681L4.66602 11.616L8.84839 12.175L6.70296 9.51519L11.6075 10.9157L11.0729 8.20166C11.0729 8.20166 15.3396 10.5616 17.3669 12.9353C17.5205 13.1113 17.6637 13.2964 17.797 13.4893C18.4845 14.4849 18.8875 15.6918 18.8875 16.9938Z" fill="#EAE0D3"/>
<path d="M16.0309 15.7333C16.0309 16.5686 15.3538 17.246 14.5185 17.246C13.683 17.246 13.0059 16.5686 13.0059 15.7333C13.0059 14.8978 13.683 14.2207 14.5185 14.2207C15.3538 14.2207 16.0309 14.8978 16.0309 15.7333Z" fill="#2F373B"/>
<path d="M30.2074 16.7314C29.5864 17.0559 28.9319 16.9823 28.4064 16.808C27.792 16.6051 27.3547 16.2659 27.3547 16.2659C27.3547 16.2659 25.143 14.0947 26.8446 13.1495C27.3586 12.8646 27.7746 12.8658 28.1046 13.0075H28.1054C28.8695 13.3351 29.1764 14.41 29.1764 14.41C29.1764 14.41 29.7923 12.813 31.1547 13.2965C32.5165 13.7794 31.5532 16.028 30.2074 16.7314Z" fill="#FF648D"/>
<path d="M28.4064 16.808C27.792 16.6051 27.3547 16.2659 27.3547 16.2659C27.3547 16.2659 25.143 14.0947 26.8446 13.1495C27.3586 12.8646 27.7746 12.8658 28.1046 13.0075C27.3516 12.9651 27.3277 15.7404 28.4064 16.808Z" fill="#EA2F69"/>
<path d="M15.5997 15.2498C15.5997 15.5109 15.3881 15.7225 15.127 15.7225C14.8659 15.7225 14.6543 15.5109 14.6543 15.2498C14.6543 14.989 14.8659 14.7773 15.127 14.7773C15.3881 14.7773 15.5997 14.989 15.5997 15.2498Z" fill="white"/>
<path d="M27.909 17.4629C27.909 19.7669 21.6379 26.7625 25.7344 29.6614C26.7584 30.3863 27.8888 30.6225 29.0085 30.5695C30.128 30.6228 31.2583 30.3863 32.2826 29.6614C36.3789 26.7625 30.1077 19.7669 30.1077 17.4629" fill="#FF648D"/>
<path d="M28.839 30.5746C27.7745 30.5977 26.7066 30.3497 25.7344 29.6614C21.6378 26.7625 27.9092 19.7667 27.9092 17.4629H28.5813C28.5813 19.7667 26.1444 26.7625 27.7364 29.6614C28.0828 30.292 28.4605 30.5534 28.839 30.5746Z" fill="#EA2F69"/>
<path d="M28.8398 30.5744C28.896 30.5739 28.9522 30.5717 29.0083 30.5693C28.9522 30.5763 28.896 30.5783 28.8398 30.5744Z" fill="#EA2F69"/>
<path d="M29.1761 30.5744C29.1199 30.5783 29.064 30.5763 29.0078 30.5693C29.064 30.5717 29.1199 30.5739 29.1761 30.5744Z" fill="#EA2F69"/>
<path d="M33.1301 17.0569L17.5005 19.6405C17.5005 19.6405 16.955 18.8132 16.7564 17.7164C16.5797 16.7384 16.679 15.5459 17.6895 14.5356L33.1301 17.0569Z" fill="#FFD62C"/>
<path d="M33.1315 17.0571L17.502 19.6408C17.502 19.6408 16.9564 18.8135 16.7578 17.7167L33.1315 17.0571Z" fill="#FFB92E"/>
<path d="M12.7114 23.1697C9.30037 23.1697 6.53543 20.4047 6.53543 16.9937C6.53543 16.4844 6.59666 15.9897 6.71333 15.5163C6.82928 15.0431 7.00019 14.5911 7.21811 14.1681L4.66602 11.616L8.84839 12.175L6.70296 9.51514L11.703 12.3297C11.703 12.3297 8.6148 13.4646 8.6148 17.0569C8.6148 20.6492 12.7114 23.1697 12.7114 23.1697Z" fill="#D6C8B0"/>
</g>
<path d="M100.901 30.8762C100.048 30.8762 99.2832 30.6659 98.6058 30.2455C97.9285 29.8134 97.3912 29.2352 96.9941 28.5111C96.6087 27.7754 96.416 26.9461 96.416 26.0235C96.416 25.1008 96.6262 24.2716 97.0467 23.5359C97.4788 22.8001 98.0569 22.222 98.781 21.8015C99.5168 21.3694 100.34 21.1533 101.251 21.1533C102.162 21.1533 102.98 21.3694 103.704 21.8015C104.428 22.222 105 22.8001 105.421 23.5359C105.853 24.2716 106.069 25.1008 106.069 26.0235H105.386C105.386 26.9461 105.187 27.7754 104.79 28.5111C104.405 29.2352 103.873 29.8134 103.196 30.2455C102.518 30.6659 101.753 30.8762 100.901 30.8762ZM101.251 29.2995C101.847 29.2995 102.378 29.1593 102.845 28.879C103.313 28.5871 103.68 28.1958 103.949 27.7053C104.218 27.2031 104.352 26.6425 104.352 26.0235C104.352 25.3928 104.218 24.8322 103.949 24.3417C103.68 23.8395 103.313 23.4483 102.845 23.168C102.378 22.876 101.847 22.73 101.251 22.73C100.667 22.73 100.136 22.876 99.657 23.168C99.1898 23.4483 98.8161 23.8395 98.5358 24.3417C98.2671 24.8322 98.1328 25.3928 98.1328 26.0235C98.1328 26.6425 98.2671 27.2031 98.5358 27.7053C98.8161 28.1958 99.1898 28.5871 99.657 28.879C100.136 29.1593 100.667 29.2995 101.251 29.2995ZM105.175 30.8236C104.918 30.8236 104.702 30.7418 104.527 30.5783C104.364 30.4031 104.282 30.1871 104.282 29.9301V27.2498L104.615 25.3928L106.069 26.0235V29.9301C106.069 30.1871 105.981 30.4031 105.806 30.5783C105.642 30.7418 105.432 30.8236 105.175 30.8236Z" fill="black"/>
<path d="M95.1337 30.5957C94.9819 30.7359 94.7658 30.806 94.4855 30.806C94.2169 30.7943 94.0067 30.7125 93.8549 30.5607L89.5979 25.9883L93.6096 21.5036C93.7614 21.3401 93.9717 21.2466 94.2403 21.2233C94.5206 21.1999 94.7366 21.2583 94.8885 21.3985C95.0637 21.562 95.1629 21.7488 95.1863 21.9591C95.2097 22.1576 95.1454 22.3386 94.9936 22.5021L91.8227 25.9007L95.1863 29.5096C95.3381 29.6614 95.414 29.8424 95.414 30.0526C95.414 30.2512 95.3206 30.4322 95.1337 30.5957ZM88.1964 30.8235C87.9394 30.8235 87.735 30.7417 87.5832 30.5782C87.4314 30.403 87.3555 30.187 87.3555 29.93V22.1167C87.3555 21.8481 87.4314 21.632 87.5832 21.4685C87.735 21.305 87.9394 21.2233 88.1964 21.2233C88.465 21.2233 88.681 21.305 88.8446 21.4685C89.0197 21.632 89.1073 21.8481 89.1073 22.1167V25.0423H91.3497V26.6891H89.1073V29.93C89.1073 30.187 89.0197 30.403 88.8446 30.5782C88.681 30.7417 88.465 30.8235 88.1964 30.8235Z" fill="black"/>
<path d="M80.8014 30.8762C79.832 30.8762 78.9678 30.6718 78.2086 30.263C77.4612 29.8426 76.8714 29.2703 76.4393 28.5462C76.0188 27.8104 75.8086 26.9695 75.8086 26.0235C75.8086 25.0658 76.0071 24.2249 76.4042 23.5008C76.813 22.765 77.3736 22.1928 78.086 21.784C78.7984 21.3635 79.616 21.1533 80.5386 21.1533C81.4496 21.1533 82.2321 21.3577 82.8861 21.7665C83.5401 22.1636 84.0365 22.7183 84.3752 23.4307C84.7256 24.1315 84.9008 24.9432 84.9008 25.8658C84.9008 26.0877 84.8248 26.2746 84.673 26.4264C84.5212 26.5666 84.3285 26.6366 84.0949 26.6366H77.0349V25.2352H84.0423L83.3241 25.7257C83.3124 25.1417 83.1956 24.622 82.9737 24.1665C82.7518 23.6994 82.4365 23.3315 82.0277 23.0628C81.6189 22.7942 81.1226 22.6599 80.5386 22.6599C79.8729 22.6599 79.3006 22.8059 78.8218 23.0979C78.3546 23.3899 77.9984 23.7928 77.7532 24.3067C77.5079 24.8089 77.3853 25.3811 77.3853 26.0235C77.3853 26.6658 77.5313 27.2381 77.8232 27.7403C78.1152 28.2425 78.5181 28.6396 79.032 28.9316C79.5459 29.2236 80.1357 29.3696 80.8014 29.3696C81.1635 29.3696 81.5313 29.3053 81.9051 29.1768C82.2905 29.0367 82.6 28.879 82.8336 28.7038C83.0087 28.5754 83.1956 28.5111 83.3942 28.5111C83.6044 28.4995 83.7854 28.5579 83.9372 28.6863C84.1358 28.8615 84.2409 29.0542 84.2526 29.2644C84.2642 29.4747 84.1708 29.6557 83.9723 29.8075C83.5752 30.1229 83.0788 30.3798 82.4832 30.5783C81.8992 30.7769 81.3386 30.8762 80.8014 30.8762Z" fill="black"/>
<path d="M69.4336 21.2407C69.6088 21.2407 69.7664 21.2874 69.9066 21.3809C70.0467 21.4743 70.1577 21.6203 70.2394 21.8188L73.8483 29.6497C73.9534 29.8832 73.9651 30.0935 73.8833 30.2803C73.8016 30.4555 73.6614 30.5898 73.4629 30.6833C73.2059 30.8 72.984 30.8292 72.7972 30.7709C72.6103 30.7125 72.4526 30.5665 72.3242 30.3329L69.0307 22.8524H69.9241L66.5255 30.3329C66.4204 30.5548 66.2627 30.7008 66.0525 30.7709C65.8539 30.8292 65.632 30.8 65.3868 30.6833C65.1649 30.5781 65.0072 30.438 64.9138 30.2628C64.832 30.0876 64.8495 29.8832 64.9663 29.6497L68.5927 21.8188C68.7679 21.4334 69.0482 21.2407 69.4336 21.2407Z" fill="black"/>
<path d="M59.2897 30.8762C58.3203 30.8762 57.4561 30.6718 56.6969 30.263C55.9495 29.8426 55.3597 29.2703 54.9275 28.5462C54.5071 27.8104 54.2969 26.9695 54.2969 26.0235C54.2969 25.0658 54.4954 24.2249 54.8925 23.5008C55.3013 22.765 55.8619 22.1928 56.5743 21.784C57.2867 21.3635 58.1043 21.1533 59.0269 21.1533C59.9379 21.1533 60.7204 21.3577 61.3744 21.7665C62.0284 22.1636 62.5248 22.7183 62.8635 23.4307C63.2139 24.1315 63.389 24.9432 63.389 25.8658C63.389 26.0877 63.3131 26.2746 63.1613 26.4264C63.0095 26.5666 62.8168 26.6366 62.5832 26.6366H55.5232V25.2352H62.5306L61.8124 25.7257C61.8007 25.1417 61.6839 24.622 61.462 24.1665C61.2401 23.6994 60.9248 23.3315 60.516 23.0628C60.1072 22.7942 59.6109 22.6599 59.0269 22.6599C58.3612 22.6599 57.7889 22.8059 57.3101 23.0979C56.8429 23.3899 56.4867 23.7928 56.2414 24.3067C55.9962 24.8089 55.8736 25.3811 55.8736 26.0235C55.8736 26.6658 56.0195 27.2381 56.3115 27.7403C56.6035 28.2425 57.0064 28.6396 57.5203 28.9316C58.0342 29.2236 58.624 29.3696 59.2897 29.3696C59.6517 29.3696 60.0196 29.3053 60.3934 29.1768C60.7788 29.0367 61.0883 28.879 61.3218 28.7038C61.497 28.5754 61.6839 28.5111 61.8824 28.5111C62.0927 28.4995 62.2737 28.5579 62.4255 28.6863C62.6241 28.8615 62.7292 29.0542 62.7408 29.2644C62.7525 29.4747 62.6591 29.6557 62.4605 29.8075C62.0635 30.1229 61.5671 30.3798 60.9715 30.5783C60.3875 30.7769 59.8269 30.8762 59.2897 30.8762Z" fill="black"/>
<path d="M42.1669 30.8061C41.8399 30.8061 41.5888 30.6659 41.4136 30.3856C41.2384 30.1053 41.2209 29.8075 41.361 29.4922L46.2837 17.7372C46.4589 17.3284 46.7451 17.124 47.1422 17.124C47.5626 17.124 47.8487 17.3284 48.0006 17.7372L52.9408 29.5272C53.0693 29.8542 53.0518 30.152 52.8883 30.4207C52.7364 30.6776 52.4912 30.8061 52.1525 30.8061C51.9773 30.8061 51.8079 30.7593 51.6444 30.6659C51.4926 30.5608 51.3817 30.4207 51.3116 30.2455L46.9319 19.454H47.4925L43.0078 30.2455C42.926 30.4323 42.8034 30.5725 42.6399 30.6659C42.488 30.7593 42.3304 30.8061 42.1669 30.8061Z" fill="black"/>
<defs>
<clipPath id="clip0_9311_32139">
<rect width="31.5961" height="31.5961" fill="white" transform="translate(4.66602 8.20166)"/>
</clipPath>
</defs>
</svg>
