<svg width="102" height="32" viewBox="0 0 102 32" fill="none" xmlns="http://www.w3.org/2000/svg">
<g clip-path="url(#clip0_16554_1536)">
<path d="M31.5961 15.798C31.5961 24.5232 24.5232 31.5961 15.798 31.5961C15.4704 31.5961 15.1455 31.5864 14.8232 31.5664C13.4716 31.4845 12.1653 31.2318 10.9265 30.83C10.4552 30.6779 9.99334 30.5031 9.5428 30.3091C3.92878 27.8864 0 22.3011 0 15.798C0 7.07291 7.07291 0 15.798 0C24.5232 0 31.5961 7.07291 31.5961 15.798Z" fill="#33ADC1"/>
<path d="M14.8238 31.5666C12.9575 31.4531 11.1792 31.0153 9.5434 30.3093C15.6612 22.0614 5.07031 14.2056 5.07031 14.2056L6.61381 13.8245L10.41 12.8877C10.41 12.8875 21.8381 19.8586 14.8238 31.5666Z" fill="#EAE0D3"/>
<path d="M10.9271 30.83C10.4558 30.6779 9.99394 30.5031 9.5434 30.309C15.6612 22.0612 5.07031 14.2053 5.07031 14.2053L6.61381 13.8242C6.98794 14.1041 7.51152 14.4683 8.04594 14.968C10.8316 17.57 14.8727 23.1072 10.9271 30.83Z" fill="#D6C8B0"/>
<path d="M14.2215 8.79214C14.2215 12.2031 11.4566 14.9681 8.04534 14.9681C4.63436 14.9681 1.86941 12.2031 1.86941 8.79214C1.86941 8.28279 1.93064 7.78813 2.04731 7.31469C2.16326 6.84149 2.33417 6.38951 2.55209 5.96645L0 3.41436L4.18237 3.97337L2.03695 1.31353L6.94153 2.71408L6.40686 0C6.40686 0 10.6736 2.35997 12.7009 4.73367C12.8545 4.90965 12.9977 5.09478 13.131 5.28763C13.8185 6.2832 14.2215 7.49018 14.2215 8.79214Z" fill="#EAE0D3"/>
<path d="M11.3649 7.53169C11.3649 8.36696 10.6878 9.04433 9.85249 9.04433C9.01698 9.04433 8.33984 8.36696 8.33984 7.53169C8.33984 6.69618 9.01698 6.01904 9.85249 6.01904C10.6878 6.01904 11.3649 6.69618 11.3649 7.53169Z" fill="#2F373B"/>
<path d="M25.5414 8.52973C24.9204 8.8542 24.2659 8.78067 23.7404 8.60639C23.126 8.40342 22.6887 8.06425 22.6887 8.06425C22.6887 8.06425 20.477 5.89303 22.1786 4.94784C22.6925 4.66291 23.1086 4.66411 23.4386 4.80585H23.4393C24.2035 5.13345 24.5104 6.20833 24.5104 6.20833C24.5104 6.20833 25.1263 4.61132 26.4887 5.09488C27.8505 5.57772 26.8872 7.82632 25.5414 8.52973Z" fill="#FF648D"/>
<path d="M23.7404 8.60639C23.126 8.40342 22.6887 8.06425 22.6887 8.06425C22.6887 8.06425 20.477 5.89303 22.1786 4.94784C22.6925 4.66291 23.1086 4.66411 23.4386 4.80585C22.6855 4.76343 22.6617 7.53874 23.7404 8.60639Z" fill="#EA2F69"/>
<path d="M10.9337 7.04816C10.9337 7.30923 10.7221 7.52088 10.461 7.52088C10.1999 7.52088 9.98828 7.30923 9.98828 7.04816C9.98828 6.78733 10.1999 6.57568 10.461 6.57568C10.7221 6.57568 10.9337 6.78733 10.9337 7.04816Z" fill="white"/>
<path d="M23.243 9.26123C23.243 11.5653 16.9719 18.5608 21.0684 21.4598C22.0924 22.1846 23.2228 22.4209 24.3425 22.3678C25.462 22.4211 26.5923 22.1846 27.6165 21.4598C31.7129 18.5608 25.4417 11.5653 25.4417 9.26123" fill="#FF648D"/>
<path d="M24.173 22.3729C23.1085 22.396 22.0406 22.148 21.0684 21.4598C16.9718 18.5608 23.2432 11.565 23.2432 9.26123H23.9153C23.9153 11.565 21.4784 18.5608 23.0704 21.4598C23.4168 22.0904 23.7945 22.3517 24.173 22.3729Z" fill="#EA2F69"/>
<path d="M24.1738 22.3727C24.23 22.3723 24.2862 22.3701 24.3423 22.3677C24.2862 22.3747 24.23 22.3766 24.1738 22.3727Z" fill="#EA2F69"/>
<path d="M24.5101 22.3727C24.4539 22.3766 24.398 22.3747 24.3418 22.3677C24.398 22.3701 24.4539 22.3723 24.5101 22.3727Z" fill="#EA2F69"/>
<path d="M28.4641 8.85522L12.8345 11.4389C12.8345 11.4389 12.289 10.6116 12.0904 9.51476C11.9137 8.53678 12.013 7.34426 13.0235 6.33398L28.4641 8.85522Z" fill="#FFD62C"/>
<path d="M28.4655 8.85547L12.8359 11.4391C12.8359 11.4391 12.2904 10.6118 12.0918 9.51501L28.4655 8.85547Z" fill="#FFB92E"/>
<path d="M8.04534 14.968C4.63436 14.968 1.86941 12.2031 1.86941 8.79209C1.86941 8.28273 1.93064 7.78808 2.04731 7.31464C2.16326 6.84144 2.33417 6.38945 2.55209 5.9664L0 3.41431L4.18237 3.97332L2.03695 1.31348L7.03699 4.12808C7.03699 4.12808 3.94879 5.26299 3.94879 8.85525C3.94879 12.4475 8.04534 14.968 8.04534 14.968Z" fill="#D6C8B0"/>
</g>
<path d="M96.2348 22.6745C95.3822 22.6745 94.6172 22.4643 93.9398 22.0438C93.2624 21.6117 92.7252 21.0336 92.3281 20.3095C91.9427 19.5737 91.75 18.7445 91.75 17.8218C91.75 16.8992 91.9602 16.07 92.3807 15.3342C92.8128 14.5984 93.3909 14.0203 94.115 13.5998C94.8508 13.1677 95.6742 12.9517 96.5851 12.9517C97.4961 12.9517 98.3136 13.1677 99.0377 13.5998C99.7619 14.0203 100.334 14.5984 100.755 15.3342C101.187 16.07 101.403 16.8992 101.403 17.8218H100.72C100.72 18.7445 100.521 19.5737 100.124 20.3095C99.7385 21.0336 99.2071 21.6117 98.5297 22.0438C97.8523 22.4643 97.0873 22.6745 96.2348 22.6745ZM96.5851 21.0978C97.1808 21.0978 97.7122 20.9577 98.1793 20.6774C98.6465 20.3854 99.0144 19.9941 99.283 19.5036C99.5516 19.0014 99.6859 18.4408 99.6859 17.8218C99.6859 17.1912 99.5516 16.6306 99.283 16.14C99.0144 15.6378 98.6465 15.2466 98.1793 14.9663C97.7122 14.6743 97.1808 14.5283 96.5851 14.5283C96.0012 14.5283 95.4698 14.6743 94.9909 14.9663C94.5238 15.2466 94.1501 15.6378 93.8698 16.14C93.6011 16.6306 93.4668 17.1912 93.4668 17.8218C93.4668 18.4408 93.6011 19.0014 93.8698 19.5036C94.1501 19.9941 94.5238 20.3854 94.9909 20.6774C95.4698 20.9577 96.0012 21.0978 96.5851 21.0978ZM100.509 22.6219C100.252 22.6219 100.036 22.5402 99.8611 22.3767C99.6976 22.2015 99.6159 21.9854 99.6159 21.7285V19.0481L99.9487 17.1912L101.403 17.8218V21.7285C101.403 21.9854 101.315 22.2015 101.14 22.3767C100.976 22.5402 100.766 22.6219 100.509 22.6219Z" fill="black"/>
<path d="M90.4677 22.3941C90.3159 22.5342 90.0998 22.6043 89.8195 22.6043C89.5509 22.5926 89.3407 22.5109 89.1889 22.359L84.9318 17.7867L88.9436 13.3019C89.0954 13.1384 89.3057 13.045 89.5743 13.0216C89.8546 12.9982 90.0706 13.0566 90.2225 13.1968C90.3976 13.3603 90.4969 13.5472 90.5203 13.7574C90.5436 13.9559 90.4794 14.137 90.3276 14.3005L87.1567 17.6991L90.5203 21.3079C90.6721 21.4597 90.748 21.6408 90.748 21.851C90.748 22.0495 90.6546 22.2306 90.4677 22.3941ZM83.5303 22.6218C83.2734 22.6218 83.069 22.5401 82.9172 22.3765C82.7654 22.2014 82.6895 21.9853 82.6895 21.7284V13.9151C82.6895 13.6464 82.7654 13.4304 82.9172 13.2669C83.069 13.1034 83.2734 13.0216 83.5303 13.0216C83.799 13.0216 84.015 13.1034 84.1785 13.2669C84.3537 13.4304 84.4413 13.6464 84.4413 13.9151V16.8407H86.6837V18.4874H84.4413V21.7284C84.4413 21.9853 84.3537 22.2014 84.1785 22.3765C84.015 22.5401 83.799 22.6218 83.5303 22.6218Z" fill="black"/>
<path d="M76.1354 22.6745C75.166 22.6745 74.3018 22.4701 73.5426 22.0613C72.7952 21.6409 72.2054 21.0686 71.7732 20.3445C71.3528 19.6087 71.1426 18.7678 71.1426 17.8218C71.1426 16.8642 71.3411 16.0233 71.7382 15.2992C72.147 14.5634 72.7076 13.9911 73.42 13.5823C74.1324 13.1619 74.95 12.9517 75.8726 12.9517C76.7836 12.9517 77.5661 13.156 78.2201 13.5648C78.8741 13.9619 79.3705 14.5167 79.7092 15.2291C80.0596 15.9298 80.2347 16.7415 80.2347 17.6642C80.2347 17.8861 80.1588 18.0729 80.007 18.2248C79.8552 18.3649 79.6625 18.435 79.4289 18.435H72.3689V17.0335H79.3763L78.6581 17.524C78.6464 16.9401 78.5296 16.4203 78.3077 15.9649C78.0858 15.4977 77.7705 15.1298 77.3617 14.8612C76.9529 14.5926 76.4566 14.4583 75.8726 14.4583C75.2069 14.4583 74.6346 14.6042 74.1558 14.8962C73.6886 15.1882 73.3324 15.5911 73.0871 16.105C72.8419 16.6072 72.7193 17.1795 72.7193 17.8218C72.7193 18.4642 72.8652 19.0365 73.1572 19.5387C73.4492 20.0409 73.8521 20.4379 74.366 20.7299C74.8799 21.0219 75.4697 21.1679 76.1354 21.1679C76.4974 21.1679 76.8653 21.1037 77.2391 20.9752C77.6245 20.835 77.934 20.6774 78.1675 20.5022C78.3427 20.3737 78.5296 20.3095 78.7281 20.3095C78.9384 20.2978 79.1194 20.3562 79.2712 20.4847C79.4698 20.6599 79.5749 20.8526 79.5866 21.0628C79.5982 21.273 79.5048 21.454 79.3063 21.6059C78.9092 21.9212 78.4128 22.1781 77.8172 22.3767C77.2332 22.5752 76.6726 22.6745 76.1354 22.6745Z" fill="black"/>
<path d="M64.7676 13.0391C64.9428 13.0391 65.1004 13.0858 65.2406 13.1792C65.3807 13.2726 65.4917 13.4186 65.5734 13.6172L69.1823 21.448C69.2874 21.6816 69.299 21.8918 69.2173 22.0787C69.1355 22.2539 68.9954 22.3882 68.7968 22.4816C68.5399 22.5984 68.318 22.6276 68.1311 22.5692C67.9443 22.5108 67.7866 22.3648 67.6581 22.1312L64.3646 14.6508H65.2581L61.8595 22.1312C61.7544 22.3531 61.5967 22.4991 61.3865 22.5692C61.1879 22.6276 60.966 22.5984 60.7208 22.4816C60.4989 22.3765 60.3412 22.2363 60.2478 22.0612C60.166 21.886 60.1835 21.6816 60.3003 21.448L63.9267 13.6172C64.1019 13.2318 64.3822 13.0391 64.7676 13.0391Z" fill="black"/>
<path d="M54.6237 22.6745C53.6543 22.6745 52.79 22.4701 52.0309 22.0613C51.2834 21.6409 50.6937 21.0686 50.2615 20.3445C49.8411 19.6087 49.6309 18.7678 49.6309 17.8218C49.6309 16.8642 49.8294 16.0233 50.2265 15.2992C50.6353 14.5634 51.1959 13.9911 51.9083 13.5823C52.6207 13.1619 53.4382 12.9517 54.3609 12.9517C55.2719 12.9517 56.0544 13.156 56.7084 13.5648C57.3624 13.9619 57.8588 14.5167 58.1975 15.2291C58.5478 15.9298 58.723 16.7415 58.723 17.6642C58.723 17.8861 58.6471 18.0729 58.4953 18.2248C58.3435 18.3649 58.1507 18.435 57.9172 18.435H50.8572V17.0335H57.8646L57.1463 17.524C57.1347 16.9401 57.0179 16.4203 56.796 15.9649C56.5741 15.4977 56.2587 15.1298 55.85 14.8612C55.4412 14.5926 54.9448 14.4583 54.3609 14.4583C53.6952 14.4583 53.1229 14.6042 52.6441 14.8962C52.1769 15.1882 51.8207 15.5911 51.5754 16.105C51.3302 16.6072 51.2075 17.1795 51.2075 17.8218C51.2075 18.4642 51.3535 19.0365 51.6455 19.5387C51.9375 20.0409 52.3404 20.4379 52.8543 20.7299C53.3682 21.0219 53.958 21.1679 54.6237 21.1679C54.9857 21.1679 55.3536 21.1037 55.7273 20.9752C56.1127 20.835 56.4222 20.6774 56.6558 20.5022C56.831 20.3737 57.0179 20.3095 57.2164 20.3095C57.4266 20.2978 57.6077 20.3562 57.7595 20.4847C57.958 20.6599 58.0632 20.8526 58.0748 21.0628C58.0865 21.273 57.9931 21.454 57.7945 21.6059C57.3974 21.9212 56.9011 22.1781 56.3055 22.3767C55.7215 22.5752 55.1609 22.6745 54.6237 22.6745Z" fill="black"/>
<path d="M37.5009 22.6044C37.1738 22.6044 36.9227 22.4643 36.7476 22.184C36.5724 21.9037 36.5548 21.6058 36.695 21.2905L41.6177 9.53551C41.7929 9.12675 42.0791 8.92236 42.4761 8.92236C42.8966 8.92236 43.1827 9.12675 43.3346 9.53551L48.2748 21.3255C48.4033 21.6526 48.3858 21.9504 48.2222 22.219C48.0704 22.4759 47.8252 22.6044 47.4865 22.6044C47.3113 22.6044 47.1419 22.5577 46.9784 22.4643C46.8266 22.3591 46.7156 22.219 46.6456 22.0438L42.2659 11.2523H42.8265L38.3417 22.0438C38.26 22.2307 38.1374 22.3708 37.9739 22.4643C37.822 22.5577 37.6644 22.6044 37.5009 22.6044Z" fill="black"/>
<defs>
<clipPath id="clip0_16554_1536">
<rect width="31.5961" height="31.5961" fill="white"/>
</clipPath>
</defs>
</svg>
