<svg width="40" height="40" viewBox="0 0 40 40" fill="none" xmlns="http://www.w3.org/2000/svg">
<path d="M19.2893 20.885V24.2492C19.2893 24.4719 19.3642 24.6586 19.5138 24.8092C19.6637 24.9598 19.8523 25.035 20.0796 25.035C20.3068 25.035 20.4938 24.9606 20.6406 24.8117C20.7874 24.6627 20.8608 24.4747 20.8608 24.2477V20.885H24.2501C24.4728 20.885 24.6594 20.8102 24.8101 20.6605C24.9606 20.5107 25.0358 20.3221 25.0358 20.0947C25.0358 19.8676 24.9614 19.6806 24.8126 19.5337C24.6636 19.3869 24.4756 19.3135 24.2486 19.3135H20.8608V15.7492C20.8608 15.5266 20.786 15.3399 20.6363 15.1892C20.4865 15.0387 20.2979 14.9635 20.0706 14.9635C19.8434 14.9635 19.6564 15.0379 19.5096 15.1867C19.3628 15.3357 19.2893 15.5237 19.2893 15.7507V19.3135H15.7501C15.5274 19.3135 15.3408 19.3883 15.1901 19.538C15.0396 19.6878 14.9643 19.8764 14.9643 20.1037C14.9643 20.3309 15.0388 20.5179 15.1876 20.6647C15.3366 20.8116 15.5246 20.885 15.7516 20.885H19.2893ZM20.0076 30.1487C18.6043 30.1487 17.2873 29.8831 16.0566 29.3517C14.8259 28.8204 13.7496 28.0938 12.8276 27.1718C11.9056 26.2498 11.1789 25.1731 10.6476 23.9417C10.1163 22.7104 9.85059 21.3923 9.85059 19.9875C9.85059 18.5828 10.1163 17.2645 10.6476 16.0325C11.1789 14.8007 11.9053 13.7278 12.8266 12.814C13.7479 11.9 14.8244 11.1765 16.0561 10.6435C17.2878 10.1103 18.6062 9.84375 20.0113 9.84375C21.4163 9.84375 22.7351 10.1102 23.9676 10.643C25.1999 11.1758 26.2728 11.8989 27.1863 12.8122C28.1 13.7256 28.8233 14.7996 29.3561 16.0342C29.8891 17.2689 30.1556 18.5883 30.1556 19.9925C30.1556 21.3965 29.889 22.7137 29.3558 23.9442C28.8228 25.1749 28.0993 26.2495 27.1853 27.168C26.2715 28.0863 25.1976 28.8127 23.9636 29.3472C22.7296 29.8816 21.4109 30.1487 20.0076 30.1487ZM20.0126 28.4455C22.3549 28.4455 24.3462 27.6226 25.9863 25.9767C27.6263 24.3307 28.4463 22.3341 28.4463 19.9867C28.4463 17.6444 27.6278 15.6532 25.9908 14.013C24.354 12.373 22.3561 11.553 19.9971 11.553C17.6611 11.553 15.6698 12.3715 14.0233 14.0085C12.377 15.6453 11.5538 17.6432 11.5538 20.0022C11.5538 22.3382 12.3768 24.3295 14.0226 25.976C15.6686 27.6223 17.6653 28.4455 20.0126 28.4455Z" fill="black"/>
</svg>
