<svg width="61" height="13" viewBox="0 0 61 13" fill="none" xmlns="http://www.w3.org/2000/svg">
<path d="M55.9056 12.8925C55.1064 12.8925 54.3892 12.6954 53.7541 12.3012C53.1191 11.8961 52.6154 11.3541 52.2432 10.6753C51.8818 9.9855 51.7012 9.20811 51.7012 8.34313C51.7012 7.47815 51.8983 6.70076 52.2924 6.01097C52.6975 5.32117 53.2395 4.77919 53.9184 4.38502C54.6082 3.9799 55.3801 3.77734 56.2341 3.77734C57.0881 3.77734 57.8546 3.9799 58.5334 4.38502C59.2123 4.77919 59.7488 5.32117 60.143 6.01097C60.5481 6.70076 60.7506 7.47815 60.7506 8.34313H60.1101C60.1101 9.20811 59.924 9.9855 59.5517 10.6753C59.1904 11.3541 58.6922 11.8961 58.0571 12.3012C57.4221 12.6954 56.7049 12.8925 55.9056 12.8925ZM56.2341 11.4144C56.7925 11.4144 57.2907 11.283 57.7287 11.0202C58.1666 10.7465 58.5115 10.3797 58.7634 9.91981C59.0152 9.449 59.1411 8.92344 59.1411 8.34313C59.1411 7.75188 59.0152 7.22632 58.7634 6.76646C58.5115 6.29564 58.1666 5.92885 57.7287 5.66607C57.2907 5.39234 56.7925 5.25548 56.2341 5.25548C55.6867 5.25548 55.1885 5.39234 54.7396 5.66607C54.3016 5.92885 53.9512 6.29564 53.6884 6.76646C53.4366 7.22632 53.3107 7.75188 53.3107 8.34313C53.3107 8.92344 53.4366 9.449 53.6884 9.91981C53.9512 10.3797 54.3016 10.7465 54.7396 11.0202C55.1885 11.283 55.6867 11.4144 56.2341 11.4144ZM59.913 12.8432C59.6721 12.8432 59.4696 12.7666 59.3053 12.6133C59.1521 12.4491 59.0754 12.2465 59.0754 12.0056V9.49279L59.3875 7.75188L60.7506 8.34313V12.0056C60.7506 12.2465 60.6685 12.4491 60.5043 12.6133C60.351 12.7666 60.1539 12.8432 59.913 12.8432Z" fill="black"/>
<path d="M50.5001 12.6302C50.3578 12.7616 50.1552 12.8273 49.8925 12.8273C49.6406 12.8164 49.4435 12.7397 49.3012 12.5974L45.3102 8.31081L49.0713 4.10634C49.2136 3.95305 49.4107 3.86546 49.6625 3.84356C49.9253 3.82166 50.1279 3.87641 50.2702 4.0078C50.4344 4.16109 50.5275 4.33627 50.5494 4.53336C50.5713 4.71949 50.5111 4.8892 50.3687 5.04249L47.3961 8.22869L50.5494 11.612C50.6917 11.7543 50.7629 11.924 50.7629 12.1211C50.7629 12.3072 50.6753 12.477 50.5001 12.6302ZM43.9963 12.8437C43.7555 12.8437 43.5639 12.7671 43.4215 12.6138C43.2792 12.4496 43.208 12.247 43.208 12.0061V4.68117C43.208 4.42934 43.2792 4.22678 43.4215 4.07349C43.5639 3.9202 43.7555 3.84356 43.9963 3.84356C44.2482 3.84356 44.4507 3.9202 44.604 4.07349C44.7683 4.22678 44.8504 4.42934 44.8504 4.68117V7.42393H46.9526V8.96776H44.8504V12.0061C44.8504 12.247 44.7683 12.4496 44.604 12.6138C44.4507 12.7671 44.2482 12.8437 43.9963 12.8437Z" fill="black"/>
<path d="M37.0636 12.8925C36.1548 12.8925 35.3446 12.7009 34.6329 12.3177C33.9321 11.9235 33.3792 11.387 32.9741 10.7081C32.5799 10.0184 32.3828 9.23001 32.3828 8.34313C32.3828 7.4453 32.5689 6.65697 32.9412 5.97812C33.3244 5.28832 33.85 4.75182 34.5179 4.3686C35.1858 3.97443 35.9522 3.77734 36.8172 3.77734C37.6712 3.77734 38.4048 3.96895 39.018 4.35217C39.6311 4.72444 40.0965 5.24453 40.414 5.91242C40.7425 6.56937 40.9067 7.33034 40.9067 8.19532C40.9067 8.40335 40.8355 8.57854 40.6932 8.72088C40.5509 8.85227 40.3702 8.91796 40.1512 8.91796H33.5325V7.60407H40.102L39.4286 8.06393C39.4176 7.51647 39.3081 7.02924 39.1001 6.60222C38.8921 6.16425 38.5964 5.81936 38.2132 5.56753C37.83 5.3157 37.3647 5.18978 36.8172 5.18978C36.1931 5.18978 35.6566 5.32665 35.2077 5.60037C34.7697 5.8741 34.4358 6.25185 34.2058 6.73361C33.9759 7.20442 33.8609 7.74093 33.8609 8.34313C33.8609 8.94533 33.9978 9.48184 34.2715 9.95266C34.5453 10.4235 34.923 10.7957 35.4048 11.0695C35.8865 11.3432 36.4395 11.4801 37.0636 11.4801C37.403 11.4801 37.7479 11.4198 38.0983 11.2994C38.4596 11.168 38.7497 11.0202 38.9687 10.856C39.133 10.7355 39.3081 10.6753 39.4943 10.6753C39.6914 10.6643 39.8611 10.7191 40.0034 10.8395C40.1895 11.0038 40.2881 11.1844 40.299 11.3815C40.31 11.5786 40.2224 11.7483 40.0363 11.8907C39.664 12.1863 39.1987 12.4272 38.6402 12.6133C38.0928 12.7994 37.5672 12.8925 37.0636 12.8925Z" fill="black"/>
<path d="M26.4067 3.85938C26.571 3.85938 26.7188 3.90317 26.8502 3.99076C26.9816 4.07836 27.0856 4.21522 27.1622 4.40136L30.5455 11.7428C30.644 11.9617 30.655 12.1588 30.5783 12.334C30.5017 12.4982 30.3703 12.6242 30.1842 12.7118C29.9433 12.8212 29.7353 12.8486 29.5601 12.7939C29.3849 12.7391 29.2371 12.6023 29.1166 12.3833L26.029 5.37036H26.8666L23.6804 12.3833C23.5818 12.5913 23.434 12.7282 23.2369 12.7939C23.0508 12.8486 22.8428 12.8212 22.6128 12.7118C22.4048 12.6132 22.257 12.4818 22.1694 12.3176C22.0928 12.1533 22.1092 11.9617 22.2187 11.7428L25.6184 4.40136C25.7826 4.04004 26.0454 3.85938 26.4067 3.85938Z" fill="black"/>
<path d="M16.8956 12.8925C15.9868 12.8925 15.1766 12.7009 14.4649 12.3177C13.7641 11.9235 13.2112 11.387 12.8061 10.7081C12.4119 10.0184 12.2148 9.23001 12.2148 8.34313C12.2148 7.4453 12.401 6.65697 12.7732 5.97812C13.1565 5.28832 13.682 4.75182 14.3499 4.3686C15.0178 3.97443 15.7843 3.77734 16.6492 3.77734C17.5033 3.77734 18.2369 3.96895 18.85 4.35217C19.4632 4.72444 19.9285 5.24453 20.246 5.91242C20.5745 6.56937 20.7387 7.33034 20.7387 8.19532C20.7387 8.40335 20.6676 8.57854 20.5252 8.72088C20.3829 8.85227 20.2022 8.91796 19.9833 8.91796H13.3645V7.60407H19.934L19.2606 8.06393C19.2497 7.51647 19.1402 7.02924 18.9321 6.60222C18.7241 6.16425 18.4285 5.81936 18.0453 5.56753C17.662 5.3157 17.1967 5.18978 16.6492 5.18978C16.0251 5.18978 15.4886 5.32665 15.0397 5.60037C14.6018 5.8741 14.2678 6.25185 14.0379 6.73361C13.8079 7.20442 13.693 7.74093 13.693 8.34313C13.693 8.94533 13.8298 9.48184 14.1036 9.95266C14.3773 10.4235 14.755 10.7957 15.2368 11.0695C15.7186 11.3432 16.2715 11.4801 16.8956 11.4801C17.235 11.4801 17.5799 11.4198 17.9303 11.2994C18.2916 11.168 18.5818 11.0202 18.8007 10.856C18.965 10.7355 19.1402 10.6753 19.3263 10.6753C19.5234 10.6643 19.6931 10.7191 19.8354 10.8395C20.0216 11.0038 20.1201 11.1844 20.1311 11.3815C20.142 11.5786 20.0544 11.7483 19.8683 11.8907C19.496 12.1863 19.0307 12.4272 18.4723 12.6133C17.9248 12.7994 17.3993 12.8925 16.8956 12.8925Z" fill="black"/>
<path d="M0.843083 12.8269C0.536508 12.8269 0.301101 12.6955 0.136864 12.4327C-0.0273728 12.17 -0.0437966 11.8908 0.0875931 11.5951L4.70265 0.574829C4.86689 0.19161 5.13514 0 5.50741 0C5.90158 0 6.16984 0.19161 6.31218 0.574829L10.9437 11.628C11.0641 11.9346 11.0477 12.2138 10.8944 12.4656C10.7521 12.7065 10.5221 12.8269 10.2046 12.8269C10.0404 12.8269 9.88159 12.7831 9.72831 12.6955C9.58597 12.597 9.48195 12.4656 9.41626 12.3014L5.31033 2.18435H5.83589L1.63142 12.3014C1.55478 12.4765 1.43981 12.6079 1.28652 12.6955C1.14418 12.7831 0.996371 12.8269 0.843083 12.8269Z" fill="black"/>
</svg>
